<svg xmlns="http://www.w3.org/2000/svg" xmlns:xlink="http://www.w3.org/1999/xlink" id="processonSvg1000" viewBox="48.0 18.0 709.0 378.5" width="709.0" height="378.5"><defs id="ProcessOnDefs1001"><marker id="ProcessOnMarker1068" markerUnits="userSpaceOnUse" orient="auto" markerWidth="16.23606797749979" markerHeight="10.550836550532098" viewBox="-1.0 -1.3763819204711736 16.23606797749979 10.550836550532098" refX="15.23606797749979" refY="3.8990363547948754"><path id="ProcessOnPath1069" d="M12.0 3.8990363547948754L0.0 7.798072709589751V0.0Z" stroke="#323232" stroke-width="2.0" fill="#fff" transform="matrix(-1.0,1.2246467991473532E-16,-1.2246467991473532E-16,-1.0,14.23606797749979,7.798072709589751)"/></marker><marker id="ProcessOnMarker1082" markerUnits="userSpaceOnUse" orient="auto" markerWidth="14.289086868996552" markerHeight="19.055054660878554" viewBox="-0.5877852522924731 -0.8090169943749475 14.289086868996552 19.055054660878554" refX="12.0" refY="8.71851033606433"><path id="ProcessOnPath1083" d="M0 0L12.0 8.71851033606433L0 17.43702067212866" stroke="#323232" stroke-width="2.0" fill="none" transform="matrix(1.0,0.0,0.0,1.0,0.0,0.0)"/></marker></defs><g id="ProcessOnG1002"><path id="ProcessOnPath1003" d="M48.0 18.0H757.0V396.5H48.0V18.0Z" fill="none"/><g id="ProcessOnG1004"><g id="ProcessOnG1005" transform="matrix(1.0,0.0,0.0,1.0,215.0,38.0)" opacity="1.0"><path id="ProcessOnPath1006" d="M0.0 4.0Q0.0 0.0 4.0 0.0L177.0 0.0Q181.0 0.0 181.0 4.0L181.0 92.0Q181.0 96.0 177.0 96.0L4.0 96.0Q0.0 96.0 0.0 92.0Z" stroke="#323232" stroke-width="2.0" stroke-dasharray="none" opacity="1.0" fill="#ffffff"/><path id="ProcessOnPath1007" d="M0.0 30.0L181.0 30.0M0.0 64.0L181.0 64.0" stroke="#323232" stroke-width="2.0" stroke-dasharray="none" opacity="1.0" fill="none"/><path id="ProcessOnPath1008" d="M0.0 0.0L181.0 0.0L181.0 96.0L0.0 96.0Z" stroke="none" stroke-width="0.0" stroke-dasharray="none" opacity="1.0" fill="none"/><g id="ProcessOnG1009" transform="matrix(1.0,0.0,0.0,1.0,10.0,6.875)"><text id="ProcessOnText1010" fill="#000000" font-size="13" x="79.5" y="13.325" font-family="微软雅黑" font-weight="bold" font-style="normal" text-decoration="none" family="微软雅黑" text-anchor="middle" size="13">运算类</text></g><g id="ProcessOnG1011" transform="matrix(1.0,0.0,0.0,1.0,10.0,29.75)"><text id="ProcessOnText1012" fill="#000000" font-size="13" x="79.5" y="13.325" font-family="微软雅黑" font-weight="bold" font-style="normal" text-decoration="none" family="微软雅黑" text-anchor="middle" size="13">+NumberA：double</text><text id="ProcessOnText1013" fill="#000000" font-size="13" x="79.5" y="29.575" font-family="微软雅黑" font-weight="bold" font-style="normal" text-decoration="none" family="微软雅黑" text-anchor="middle" size="13">+NumberB：double</text></g><g id="ProcessOnG1014" transform="matrix(1.0,0.0,0.0,1.0,10.0,72.875)"><text id="ProcessOnText1015" fill="#000000" font-size="13" x="79.5" y="13.325" font-family="微软雅黑" font-weight="bold" font-style="normal" text-decoration="none" family="微软雅黑" text-anchor="middle" size="13">+GetResult()：double</text></g></g><g id="ProcessOnG1016" transform="matrix(1.0,0.0,0.0,1.0,68.0,188.0)" opacity="1.0"><path id="ProcessOnPath1017" d="M0.0 4.0Q0.0 0.0 4.0 0.0L143.0 0.0Q147.0 0.0 147.0 4.0L147.0 83.0Q147.0 87.0 143.0 87.0L4.0 87.0Q0.0 87.0 0.0 83.0Z" stroke="#323232" stroke-width="2.0" stroke-dasharray="none" opacity="1.0" fill="#ffffff"/><path id="ProcessOnPath1018" d="M0.0 30.0L147.0 30.0M0.0 60.0L147.0 60.0" stroke="#323232" stroke-width="2.0" stroke-dasharray="none" opacity="1.0" fill="none"/><path id="ProcessOnPath1019" d="M0.0 0.0L147.0 0.0L147.0 87.0L0.0 87.0Z" stroke="none" stroke-width="0.0" stroke-dasharray="none" opacity="1.0" fill="none"/><g id="ProcessOnG1020" transform="matrix(1.0,0.0,0.0,1.0,10.0,6.875)"><text id="ProcessOnText1021" fill="#000000" font-size="13" x="62.5" y="13.325" font-family="微软雅黑" font-weight="bold" font-style="normal" text-decoration="none" family="微软雅黑" text-anchor="middle" size="13">加法类</text></g><g id="ProcessOnG1022" transform="matrix(1.0,0.0,0.0,1.0,10.0,36.875)"><text id="ProcessOnText1023" fill="#000000" font-size="13" x="62.5" y="13.325" font-family="微软雅黑" font-weight="bold" font-style="normal" text-decoration="none" family="微软雅黑" text-anchor="middle" size="13"></text></g><g id="ProcessOnG1024" transform="matrix(1.0,0.0,0.0,1.0,10.0,66.875)"><text id="ProcessOnText1025" fill="#000000" font-size="13" x="62.5" y="13.325" font-family="微软雅黑" font-weight="bold" font-style="normal" text-decoration="none" family="微软雅黑" text-anchor="middle" size="13">+GetResult():double</text></g></g><g id="ProcessOnG1026" transform="matrix(1.0,0.0,0.0,1.0,413.5,287.5)" opacity="1.0"><path id="ProcessOnPath1027" d="M0.0 4.0Q0.0 0.0 4.0 0.0L148.0 0.0Q152.0 0.0 152.0 4.0L152.0 85.0Q152.0 89.0 148.0 89.0L4.0 89.0Q0.0 89.0 0.0 85.0Z" stroke="#323232" stroke-width="2.0" stroke-dasharray="none" opacity="1.0" fill="#ffffff"/><path id="ProcessOnPath1028" d="M0.0 30.0L152.0 30.0M0.0 60.0L152.0 60.0" stroke="#323232" stroke-width="2.0" stroke-dasharray="none" opacity="1.0" fill="none"/><path id="ProcessOnPath1029" d="M0.0 0.0L152.0 0.0L152.0 89.0L0.0 89.0Z" stroke="none" stroke-width="0.0" stroke-dasharray="none" opacity="1.0" fill="none"/><g id="ProcessOnG1030" transform="matrix(1.0,0.0,0.0,1.0,10.0,6.875)"><text id="ProcessOnText1031" fill="#000000" font-size="13" x="65.0" y="13.325" font-family="微软雅黑" font-weight="bold" font-style="normal" text-decoration="none" family="微软雅黑" text-anchor="middle" size="13">除法类</text></g><g id="ProcessOnG1032" transform="matrix(1.0,0.0,0.0,1.0,10.0,36.875)"><text id="ProcessOnText1033" fill="#000000" font-size="13" x="65.0" y="13.325" font-family="微软雅黑" font-weight="bold" font-style="normal" text-decoration="none" family="微软雅黑" text-anchor="middle" size="13"></text></g><g id="ProcessOnG1034" transform="matrix(1.0,0.0,0.0,1.0,10.0,66.875)"><text id="ProcessOnText1035" fill="#000000" font-size="13" x="65.0" y="13.325" font-family="微软雅黑" font-weight="bold" font-style="normal" text-decoration="none" family="微软雅黑" text-anchor="middle" size="13">+GetResult():double</text></g></g><g id="ProcessOnG1036" transform="matrix(1.0,0.0,0.0,1.0,277.5,186.0)" opacity="1.0"><path id="ProcessOnPath1037" d="M0.0 4.0Q0.0 0.0 4.0 0.0L148.0 0.0Q152.0 0.0 152.0 4.0L152.0 85.0Q152.0 89.0 148.0 89.0L4.0 89.0Q0.0 89.0 0.0 85.0Z" stroke="#323232" stroke-width="2.0" stroke-dasharray="none" opacity="1.0" fill="#ffffff"/><path id="ProcessOnPath1038" d="M0.0 30.0L152.0 30.0M0.0 60.0L152.0 60.0" stroke="#323232" stroke-width="2.0" stroke-dasharray="none" opacity="1.0" fill="none"/><path id="ProcessOnPath1039" d="M0.0 0.0L152.0 0.0L152.0 89.0L0.0 89.0Z" stroke="none" stroke-width="0.0" stroke-dasharray="none" opacity="1.0" fill="none"/><g id="ProcessOnG1040" transform="matrix(1.0,0.0,0.0,1.0,10.0,6.875)"><text id="ProcessOnText1041" fill="#000000" font-size="13" x="65.0" y="13.325" font-family="微软雅黑" font-weight="bold" font-style="normal" text-decoration="none" family="微软雅黑" text-anchor="middle" size="13">乘法类</text></g><g id="ProcessOnG1042" transform="matrix(1.0,0.0,0.0,1.0,10.0,36.875)"><text id="ProcessOnText1043" fill="#000000" font-size="13" x="65.0" y="13.325" font-family="微软雅黑" font-weight="bold" font-style="normal" text-decoration="none" family="微软雅黑" text-anchor="middle" size="13"></text></g><g id="ProcessOnG1044" transform="matrix(1.0,0.0,0.0,1.0,10.0,66.875)"><text id="ProcessOnText1045" fill="#000000" font-size="13" x="65.0" y="13.325" font-family="微软雅黑" font-weight="bold" font-style="normal" text-decoration="none" family="微软雅黑" text-anchor="middle" size="13">+GetResult():double</text></g></g><g id="ProcessOnG1046" transform="matrix(1.0,0.0,0.0,1.0,169.5,287.5)" opacity="1.0"><path id="ProcessOnPath1047" d="M0.0 4.0Q0.0 0.0 4.0 0.0L148.0 0.0Q152.0 0.0 152.0 4.0L152.0 85.0Q152.0 89.0 148.0 89.0L4.0 89.0Q0.0 89.0 0.0 85.0Z" stroke="#323232" stroke-width="2.0" stroke-dasharray="none" opacity="1.0" fill="#ffffff"/><path id="ProcessOnPath1048" d="M0.0 30.0L152.0 30.0M0.0 60.0L152.0 60.0" stroke="#323232" stroke-width="2.0" stroke-dasharray="none" opacity="1.0" fill="none"/><path id="ProcessOnPath1049" d="M0.0 0.0L152.0 0.0L152.0 89.0L0.0 89.0Z" stroke="none" stroke-width="0.0" stroke-dasharray="none" opacity="1.0" fill="none"/><g id="ProcessOnG1050" transform="matrix(1.0,0.0,0.0,1.0,10.0,6.875)"><text id="ProcessOnText1051" fill="#000000" font-size="13" x="65.0" y="13.325" font-family="微软雅黑" font-weight="bold" font-style="normal" text-decoration="none" family="微软雅黑" text-anchor="middle" size="13">减法类</text></g><g id="ProcessOnG1052" transform="matrix(1.0,0.0,0.0,1.0,10.0,36.875)"><text id="ProcessOnText1053" fill="#000000" font-size="13" x="65.0" y="13.325" font-family="微软雅黑" font-weight="bold" font-style="normal" text-decoration="none" family="微软雅黑" text-anchor="middle" size="13"></text></g><g id="ProcessOnG1054" transform="matrix(1.0,0.0,0.0,1.0,10.0,66.875)"><text id="ProcessOnText1055" fill="#000000" font-size="13" x="65.0" y="13.325" font-family="微软雅黑" font-weight="bold" font-style="normal" text-decoration="none" family="微软雅黑" text-anchor="middle" size="13">+GetResult():double</text></g></g><g id="ProcessOnG1056"><path id="ProcessOnPath1057" d="M139.0 189.0L139.0 165.0" stroke="#323232" stroke-width="2.0" stroke-dasharray="none" fill="none"/></g><g id="ProcessOnG1058"><path id="ProcessOnPath1059" d="M353.5 186.0L353.5 164.0" stroke="#323232" stroke-width="2.0" stroke-dasharray="none" fill="none"/></g><g id="ProcessOnG1060"><path id="ProcessOnPath1061" d="M245.5 287.5L245.5 167.0" stroke="#323232" stroke-width="2.0" stroke-dasharray="none" fill="none"/></g><g id="ProcessOnG1062"><path id="ProcessOnPath1063" d="M489.5 287.5L490.5 166.0" stroke="#323232" stroke-width="2.0" stroke-dasharray="none" fill="none"/></g><g id="ProcessOnG1064"><path id="ProcessOnPath1065" d="M138.0 165.0L492.0 165.0" stroke="#323232" stroke-width="2.0" stroke-dasharray="none" fill="none"/></g><g id="ProcessOnG1066"><path id="ProcessOnPath1067" d="M305.5 149.2360679774998L305.5 164.0" stroke="#323232" stroke-width="2.0" stroke-dasharray="none" fill="none" marker-start="url(#ProcessOnMarker1068)"/></g><g id="ProcessOnG1070" transform="matrix(1.0,0.0,0.0,1.0,562.0,41.0)" opacity="1.0"><path id="ProcessOnPath1071" d="M0.0 4.0Q0.0 0.0 4.0 0.0L171.0 0.0Q175.0 0.0 175.0 4.0L175.0 86.0Q175.0 90.0 171.0 90.0L4.0 90.0Q0.0 90.0 0.0 86.0Z" stroke="#323232" stroke-width="2.0" stroke-dasharray="none" opacity="1.0" fill="#ffffff"/><path id="ProcessOnPath1072" d="M0.0 30.0L175.0 30.0M0.0 62.0L175.0 62.0" stroke="#323232" stroke-width="2.0" stroke-dasharray="none" opacity="1.0" fill="none"/><path id="ProcessOnPath1073" d="M0.0 0.0L175.0 0.0L175.0 90.0L0.0 90.0Z" stroke="none" stroke-width="0.0" stroke-dasharray="none" opacity="1.0" fill="none"/><g id="ProcessOnG1074" transform="matrix(1.0,0.0,0.0,1.0,10.0,6.875)"><text id="ProcessOnText1075" fill="#000000" font-size="13" x="76.5" y="13.325" font-family="微软雅黑" font-weight="bold" font-style="normal" text-decoration="none" family="微软雅黑" text-anchor="middle" size="13">简单工厂类</text></g><g id="ProcessOnG1076" transform="matrix(1.0,0.0,0.0,1.0,10.0,36.875)"><text id="ProcessOnText1077" fill="#000000" font-size="13" x="76.5" y="13.325" font-family="微软雅黑" font-weight="bold" font-style="normal" text-decoration="none" family="微软雅黑" text-anchor="middle" size="13"></text></g><g id="ProcessOnG1078" transform="matrix(1.0,0.0,0.0,1.0,10.0,68.875)"><text id="ProcessOnText1079" fill="#000000" font-size="13" x="76.5" y="13.325" font-family="微软雅黑" font-weight="bold" font-style="normal" text-decoration="none" family="微软雅黑" text-anchor="middle" size="13">+createOperate():运算类</text></g></g><g id="ProcessOnG1080"><path id="ProcessOnPath1081" d="M562.0 86.0L396.0 86.0" stroke="#323232" stroke-width="2.0" stroke-dasharray="10.0 4.0" fill="none" marker-end="url(#ProcessOnMarker1082)"/></g></g></g></svg>